<svg xmlns="http://www.w3.org/2000/svg" viewBox="0 0 64 64" width="512" height="512" shape-rendering="crispEdges">
<rect x="0" y="0" width="64" height="64" fill="#130b18"></rect>
<rect x="3" y="1" width="1" height="1" fill="#f0ece0"></rect>
<rect x="15" y="0" width="1" height="1" fill="#f0ece0"></rect>
<rect x="32" y="2" width="1" height="1" fill="#f0ece0"></rect>
<rect x="47" y="1" width="1" height="1" fill="#f0ece0"></rect>
<rect x="58" y="0" width="1" height="1" fill="#f0ece0"></rect>
<rect x="8" y="5" width="1" height="1" fill="#f0ece0"></rect>
<rect x="20" y="3" width="1" height="1" fill="#f0ece0"></rect>
<rect x="50" y="4" width="1" height="1" fill="#f0ece0"></rect>
<rect x="60" y="6" width="1" height="1" fill="#f0ece0"></rect>
<rect x="38" y="1" width="1" height="1" fill="#f0ece0"></rect>
<rect x="25" y="7" width="1" height="1" fill="#f0ece0"></rect>
<rect x="55" y="3" width="1" height="1" fill="#f0ece0"></rect>
<rect x="55" y="1" width="5" height="5" fill="#cc6600"></rect>
<rect x="56" y="1" width="3" height="1" fill="#dd7700"></rect>
<rect x="55" y="2" width="1" height="3" fill="#bb5500"></rect>
<rect x="59" y="3" width="1" height="2" fill="#bb5500"></rect>
<rect x="1" y="21" width="1" height="20" fill="#3a3428"></rect>
<rect x="3" y="21" width="1" height="20" fill="#5a5448"></rect>
<rect x="1" y="22" width="3" height="1" fill="#5a5448"></rect>
<rect x="1" y="26" width="3" height="1" fill="#5a5448"></rect>
<rect x="1" y="30" width="3" height="1" fill="#5a5448"></rect>
<rect x="1" y="34" width="3" height="1" fill="#5a5448"></rect>
<rect x="1" y="38" width="3" height="1" fill="#5a5448"></rect>
<rect x="2" y="22" width="1" height="1" fill="#5a5448"></rect>
<rect x="2" y="27" width="1" height="1" fill="#5a5448"></rect>
<rect x="2" y="30" width="1" height="1" fill="#5a5448"></rect>
<rect x="2" y="35" width="1" height="1" fill="#5a5448"></rect>
<rect x="2" y="38" width="1" height="1" fill="#5a5448"></rect>
<rect x="0" y="21" width="5" height="1" fill="#5a5448"></rect>
<rect x="2" y="20" width="1" height="2" fill="#aaa290"></rect>
<rect x="2" y="19" width="1" height="1" fill="#ff2200"></rect>
<rect x="8" y="25" width="1" height="16" fill="#78706a"></rect>
<rect x="5" y="25" width="7" height="1" fill="#aaa290"></rect>
<rect x="5" y="23" width="3" height="3" fill="#1e3060"></rect>
<rect x="5" y="26" width="3" height="3" fill="#142244"></rect>
<rect x="5" y="29" width="3" height="1" fill="#0a1830"></rect>
<rect x="9" y="23" width="3" height="3" fill="#1e3060"></rect>
<rect x="9" y="26" width="3" height="3" fill="#142244"></rect>
<rect x="9" y="29" width="3" height="1" fill="#0a1830"></rect>
<rect x="6" y="23" width="1" height="7" fill="#142244"></rect>
<rect x="10" y="23" width="1" height="7" fill="#142244"></rect>
<rect x="5" y="26" width="7" height="1" fill="#142244"></rect>
<rect x="5" y="29" width="7" height="1" fill="#142244"></rect>
<rect x="5" y="23" width="1" height="1" fill="#e0c840"></rect>
<rect x="9" y="23" width="1" height="1" fill="#e0c840"></rect>
<rect x="14" y="28" width="5" height="1" fill="#d8d0b8"></rect>
<rect x="13" y="29" width="7" height="1" fill="#d8d0b8"></rect>
<rect x="13" y="30" width="7" height="1" fill="#d8d0b8"></rect>
<rect x="13" y="30" width="7" height="12" fill="#c2b99c"></rect>
<rect x="13" y="30" width="1" height="12" fill="#d8d0b8"></rect>
<rect x="19" y="30" width="1" height="12" fill="#8e8672"></rect>
<rect x="13" y="33" width="7" height="1" fill="#8e8672"></rect>
<rect x="13" y="36" width="7" height="1" fill="#8e8672"></rect>
<rect x="13" y="39" width="7" height="1" fill="#8e8672"></rect>
<rect x="15" y="32" width="2" height="2" fill="#ffb520"></rect>
<rect x="15" y="32" width="2" height="1" fill="#b07010"></rect>
<rect x="15" y="32" width="1" height="1" fill="#ffe090"></rect>
<rect x="15" y="37" width="2" height="2" fill="#e09010"></rect>
<rect x="15" y="37" width="2" height="1" fill="#b07010"></rect>
<rect x="15" y="40" width="3" height="2" fill="#7e7868"></rect>
<rect x="16" y="40" width="1" height="1" fill="#e09010"></rect>
<rect x="20" y="37" width="3" height="1" fill="#b4ae98"></rect>
<rect x="20" y="38" width="3" height="3" fill="#9a9280"></rect>
<rect x="20" y="41" width="3" height="1" fill="#6e6a5a"></rect>
<rect x="21" y="37" width="1" height="5" fill="#6e6a5a"></rect>
<rect x="29" y="24" width="6" height="1" fill="#e8e0cc"></rect>
<rect x="27" y="25" width="10" height="1" fill="#e8e0cc"></rect>
<rect x="26" y="26" width="12" height="1" fill="#e8e0cc"></rect>
<rect x="25" y="27" width="14" height="1" fill="#e8e0cc"></rect>
<rect x="24" y="28" width="16" height="1" fill="#e8e0cc"></rect>
<rect x="23" y="29" width="18" height="1" fill="#e8e0cc"></rect>
<rect x="22" y="30" width="20" height="1" fill="#e8e0cc"></rect>
<rect x="22" y="31" width="20" height="11" fill="#bdb59e"></rect>
<rect x="22" y="30" width="1" height="12" fill="#e8e0cc"></rect>
<rect x="36" y="28" width="2" height="14" fill="#8a8070"></rect>
<rect x="38" y="30" width="2" height="12" fill="#8a8070"></rect>
<rect x="40" y="32" width="2" height="9" fill="#8a8070"></rect>
<rect x="22" y="33" width="20" height="1" fill="#8a8070"></rect>
<rect x="22" y="36" width="20" height="1" fill="#8a8070"></rect>
<rect x="22" y="39" width="20" height="1" fill="#8a8070"></rect>
<rect x="28" y="29" width="8" height="6" fill="#b07010"></rect>
<rect x="29" y="30" width="6" height="4" fill="#ffb520"></rect>
<rect x="30" y="30" width="4" height="2" fill="#ffe090"></rect>
<rect x="29" y="30" width="1" height="1" fill="#ffe090"></rect>
<rect x="24" y="34" width="3" height="3" fill="#b07010"></rect>
<rect x="25" y="34" width="1" height="2" fill="#ffb520"></rect>
<rect x="25" y="34" width="1" height="1" fill="#ffe090"></rect>
<rect x="37" y="34" width="3" height="3" fill="#b07010"></rect>
<rect x="38" y="34" width="1" height="2" fill="#ffb520"></rect>
<rect x="38" y="34" width="1" height="1" fill="#ffe090"></rect>
<rect x="22" y="40" width="20" height="2" fill="#8e8672"></rect>
<rect x="22" y="40" width="20" height="1" fill="#c2b99c"></rect>
<rect x="29" y="38" width="6" height="4" fill="#7e7868"></rect>
<rect x="30" y="38" width="4" height="1" fill="#b4ae98"></rect>
<rect x="31" y="39" width="2" height="2" fill="#e09010"></rect>
<rect x="30" y="41" width="4" height="1" fill="#3a3428"></rect>
<rect x="42" y="37" width="3" height="1" fill="#b4ae98"></rect>
<rect x="42" y="38" width="3" height="3" fill="#9a9280"></rect>
<rect x="42" y="41" width="3" height="1" fill="#6e6a5a"></rect>
<rect x="43" y="37" width="1" height="5" fill="#6e6a5a"></rect>
<rect x="46" y="28" width="5" height="1" fill="#d8d0b8"></rect>
<rect x="45" y="29" width="7" height="1" fill="#d8d0b8"></rect>
<rect x="45" y="30" width="7" height="1" fill="#d8d0b8"></rect>
<rect x="45" y="30" width="7" height="12" fill="#c2b99c"></rect>
<rect x="45" y="30" width="1" height="12" fill="#d8d0b8"></rect>
<rect x="51" y="30" width="1" height="12" fill="#8e8672"></rect>
<rect x="45" y="33" width="7" height="1" fill="#8e8672"></rect>
<rect x="45" y="36" width="7" height="1" fill="#8e8672"></rect>
<rect x="45" y="39" width="7" height="1" fill="#8e8672"></rect>
<rect x="47" y="32" width="2" height="2" fill="#ffb520"></rect>
<rect x="47" y="32" width="2" height="1" fill="#b07010"></rect>
<rect x="47" y="32" width="1" height="1" fill="#ffe090"></rect>
<rect x="47" y="37" width="2" height="2" fill="#e09010"></rect>
<rect x="47" y="37" width="2" height="1" fill="#b07010"></rect>
<rect x="47" y="40" width="3" height="2" fill="#7e7868"></rect>
<rect x="48" y="40" width="1" height="1" fill="#e09010"></rect>
<rect x="55" y="25" width="1" height="16" fill="#78706a"></rect>
<rect x="52" y="25" width="7" height="1" fill="#aaa290"></rect>
<rect x="52" y="23" width="3" height="3" fill="#1e3060"></rect>
<rect x="52" y="26" width="3" height="3" fill="#142244"></rect>
<rect x="52" y="29" width="3" height="1" fill="#0a1830"></rect>
<rect x="56" y="23" width="3" height="3" fill="#1e3060"></rect>
<rect x="56" y="26" width="3" height="3" fill="#142244"></rect>
<rect x="56" y="29" width="3" height="1" fill="#0a1830"></rect>
<rect x="53" y="23" width="1" height="7" fill="#142244"></rect>
<rect x="57" y="23" width="1" height="7" fill="#142244"></rect>
<rect x="52" y="26" width="7" height="1" fill="#142244"></rect>
<rect x="52" y="29" width="7" height="1" fill="#142244"></rect>
<rect x="52" y="23" width="1" height="1" fill="#e0c840"></rect>
<rect x="56" y="23" width="1" height="1" fill="#e0c840"></rect>
<rect x="1" y="41" width="3" height="1" fill="#5a5448"></rect>
<rect x="13" y="41" width="7" height="1" fill="#8e8672"></rect>
<rect x="20" y="41" width="3" height="1" fill="#9a9280"></rect>
<rect x="22" y="41" width="20" height="1" fill="#8a8070"></rect>
<rect x="42" y="41" width="3" height="1" fill="#9a9280"></rect>
<rect x="45" y="41" width="7" height="1" fill="#8e8672"></rect>
<rect x="8" y="41" width="1" height="1" fill="#78706a"></rect>
<rect x="55" y="41" width="1" height="1" fill="#78706a"></rect>
<rect x="0" y="42" width="64" height="1" fill="#c04818"></rect>
<rect x="0" y="43" width="64" height="2" fill="#c04818"></rect>
<rect x="0" y="45" width="64" height="2" fill="#7e2808"></rect>
<rect x="0" y="47" width="64" height="16" fill="#481606"></rect>
<rect x="10" y="43" width="8" height="1" fill="#7e2808"></rect>
<rect x="40" y="44" width="12" height="1" fill="#7e2808"></rect>
<rect x="2" y="44" width="2" height="1" fill="#7a3010"></rect>
<rect x="4" y="45" width="1" height="1" fill="#5e2006"></rect>
<rect x="6" y="43" width="1" height="1" fill="#5e2006"></rect>
<rect x="7" y="44" width="1" height="1" fill="#7a3010"></rect>
<rect x="58" y="43" width="2" height="1" fill="#7a3010"></rect>
<rect x="60" y="44" width="1" height="1" fill="#5e2006"></rect>
<rect x="28" y="44" width="1" height="1" fill="#5e2006"></rect>
<rect x="42" y="45" width="2" height="1" fill="#7a3010"></rect>
<rect x="41" y="44" width="12" height="1" fill="#1a2440"></rect>
<rect x="42" y="45" width="10" height="2" fill="#1a2440"></rect>
<rect x="40" y="46" width="14" height="1" fill="#807868"></rect>
<rect x="39" y="47" width="16" height="1" fill="#b0a892"></rect>
<rect x="38" y="48" width="18" height="4" fill="#b0a892"></rect>
<rect x="38" y="48" width="1" height="4" fill="#807868"></rect>
<rect x="55" y="48" width="1" height="4" fill="#807868"></rect>
<rect x="41" y="48" width="10" height="2" fill="#ffb020"></rect>
<rect x="41" y="48" width="10" height="1" fill="#1a2440"></rect>
<rect x="42" y="48" width="1" height="2" fill="#ffe8c0"></rect>
<rect x="38" y="51" width="5" height="3" fill="#3a3020"></rect>
<rect x="39" y="51" width="3" height="3" fill="#606050"></rect>
<rect x="40" y="52" width="1" height="1" fill="#3a3020"></rect>
<rect x="44" y="51" width="5" height="3" fill="#3a3020"></rect>
<rect x="45" y="51" width="3" height="3" fill="#606050"></rect>
<rect x="46" y="52" width="1" height="1" fill="#3a3020"></rect>
<rect x="50" y="51" width="5" height="3" fill="#3a3020"></rect>
<rect x="51" y="51" width="3" height="3" fill="#606050"></rect>
<rect x="52" y="52" width="1" height="1" fill="#3a3020"></rect>
<rect x="38" y="50" width="5" height="1" fill="#481606"></rect>
<rect x="44" y="50" width="5" height="1" fill="#481606"></rect>
<rect x="50" y="50" width="5" height="1" fill="#481606"></rect>
<rect x="55" y="45" width="1" height="3" fill="#aaa290"></rect>
<rect x="55" y="45" width="1" height="1" fill="#ff2200"></rect>
</svg>
